<svg xmlns="http://www.w3.org/2000/svg" viewBox="0 0 48 48">
  <path fill="#1DA1F2" d="M15.1 43.5c18.11 0 28.02-15 28.02-28.02 0-.43 0-.85-.02-1.27A20 20 0 0 0 48 9.11c-1.79.79-3.7 1.32-5.69 1.56a9.96 9.96 0 0 0 4.37-5.5 19.9 19.9 0 0 1-6.29 2.4A9.96 9.96 0 0 0 23.34 14c0 .78.09 1.54.26 2.27A28.27 28.27 0 0 1 3.34 6.3a9.96 9.96 0 0 0 3.08 13.28 9.88 9.88 0 0 1-4.51-1.24v.13a9.96 9.96 0 0 0 7.98 9.76c-.83.23-1.71.35-2.62.35-.64 0-1.27-.06-1.88-.18a9.96 9.96 0 0 0 9.3 6.91A20 20 0 0 1 2.34 39.1c-.67 0-1.34-.04-2-.11a28.15 28.15 0 0 0 15.25 4.47"/>
</svg> 